<svg xmlns="http://www.w3.org/2000/svg" xmlns:xlink="http://www.w3.org/1999/xlink" contentStyleType="text/css" data-diagram-type="SEQUENCE" height="613px" preserveAspectRatio="none" style="width:1033px;height:613px;background:#FFFFFF;" version="1.1" viewBox="0 0 1033 613" width="1033px" zoomAndPan="magnify"><?plantuml 1.2026.4beta2?><defs/><g><g class="title" data-source-line="1"><text fill="#000000" font-family="sans-serif" font-size="14" font-weight="700" lengthAdjust="spacing" textLength="106.5791" x="460.0193" y="27.9951">User - Sign In</text></g><g><title>AuthController</title><rect fill="#FFFFFF" height="371.2656" style="stroke:#181818;stroke-width:1;" width="10" x="272.6143" y="149.7266"/></g><g><title>AuthService</title><rect fill="#FFFFFF" height="342.1328" style="stroke:#181818;stroke-width:1;" width="10" x="502.8267" y="178.8594"/></g><g><title>UserRepository</title><rect fill="#FFFFFF" height="58.2656" style="stroke:#181818;stroke-width:1;" width="10" x="725.0981" y="207.9922"/></g><rect fill="none" height="190.6016" style="stroke:#000000;stroke-width:1.5;" width="693.5078" x="10" y="323.3906"/><g class="participant-lifeline" data-entity-uid="part1" data-qualified-name="Customer" data-source-line="3" id="part1-lifeline"><g><title>Customer</title><rect fill="#000000" fill-opacity="0.00000" height="412.3984" width="8" x="53.002" y="118.5938"/><line style="stroke:#181818;stroke-width:0.5;stroke-dasharray:5,5;" x1="57" x2="57" y1="118.5938" y2="530.9922"/></g></g><g class="participant-lifeline" data-entity-uid="part2" data-qualified-name="Ctrl" data-source-line="4" id="part2-lifeline"><g><title>AuthController</title><rect fill="#000000" fill-opacity="0.00000" height="412.3984" width="8" x="273.6143" y="118.5938"/><line style="stroke:#181818;stroke-width:0.5;stroke-dasharray:5,5;" x1="276.6216" x2="276.6216" y1="118.5938" y2="530.9922"/></g></g><g class="participant-lifeline" data-entity-uid="part3" data-qualified-name="Service" data-source-line="5" id="part3-lifeline"><g><title>AuthService</title><rect fill="#000000" fill-opacity="0.00000" height="412.3984" width="8" x="503.8267" y="118.5938"/><line style="stroke:#181818;stroke-width:0.5;stroke-dasharray:5,5;" x1="507.5498" x2="507.5498" y1="118.5938" y2="530.9922"/></g></g><g class="participant-lifeline" data-entity-uid="part4" data-qualified-name="Repo" data-source-line="6" id="part4-lifeline"><g><title>UserRepository</title><rect fill="#000000" fill-opacity="0.00000" height="412.3984" width="8" x="726.0981" y="118.5938"/><line style="stroke:#181818;stroke-width:0.5;stroke-dasharray:5,5;" x1="729.6069" x2="729.6069" y1="118.5938" y2="530.9922"/></g></g><g class="participant-lifeline" data-entity-uid="part5" data-qualified-name="DB" data-source-line="7" id="part5-lifeline"><g><title>Database</title><rect fill="#000000" fill-opacity="0.00000" height="412.3984" width="8" x="982.2173" y="118.5938"/><line style="stroke:#181818;stroke-width:0.5;stroke-dasharray:5,5;" x1="985.8169" x2="985.8169" y1="118.5938" y2="530.9922"/></g></g><g class="participant participant-head" data-entity-uid="part1" data-qualified-name="Customer" data-source-line="3" id="part1-head"><text fill="#000000" font-family="sans-serif" font-size="14" lengthAdjust="spacing" textLength="68.0039" x="20" y="115.292">Customer</text><ellipse cx="57.002" cy="50.7969" fill="#E2E2F0" rx="8" ry="8" style="stroke:#181818;stroke-width:0.5;"/><path d="M57.002,58.7969 L57.002,85.7969 M44.002,66.7969 L70.002,66.7969 M57.002,85.7969 L44.002,100.7969 M57.002,85.7969 L70.002,100.7969" fill="none" style="stroke:#181818;stroke-width:0.5;"/></g><g class="participant participant-tail" data-entity-uid="part1" data-qualified-name="Customer" data-source-line="3" id="part1-tail"><text fill="#000000" font-family="sans-serif" font-size="14" lengthAdjust="spacing" textLength="68.0039" x="20" y="542.9873">Customer</text><ellipse cx="57.002" cy="554.7891" fill="#E2E2F0" rx="8" ry="8" style="stroke:#181818;stroke-width:0.5;"/><path d="M57.002,562.7891 L57.002,589.7891 M44.002,570.7891 L70.002,570.7891 M57.002,589.7891 L44.002,604.7891 M57.002,589.7891 L70.002,604.7891" fill="none" style="stroke:#181818;stroke-width:0.5;"/></g><g class="participant participant-head" data-entity-uid="part2" data-qualified-name="Ctrl" data-source-line="4" id="part2-head"><rect fill="#E2E2F0" height="30.2969" rx="2.5" ry="2.5" style="stroke:#181818;stroke-width:0.5;" width="115.9854" x="219.6216" y="87.2969"/><text fill="#000000" font-family="sans-serif" font-size="14" lengthAdjust="spacing" textLength="101.9854" x="226.6216" y="107.292">AuthController</text></g><g class="participant participant-tail" data-entity-uid="part2" data-qualified-name="Ctrl" data-source-line="4" id="part2-tail"><rect fill="#E2E2F0" height="30.2969" rx="2.5" ry="2.5" style="stroke:#181818;stroke-width:0.5;" width="115.9854" x="219.6216" y="529.9922"/><text fill="#000000" font-family="sans-serif" font-size="14" lengthAdjust="spacing" textLength="101.9854" x="226.6216" y="549.9873">AuthController</text></g><g class="participant participant-head" data-entity-uid="part3" data-qualified-name="Service" data-source-line="5" id="part3-head"><rect fill="#E2E2F0" height="30.2969" rx="2.5" ry="2.5" style="stroke:#181818;stroke-width:0.5;" width="98.5537" x="458.5498" y="87.2969"/><text fill="#000000" font-family="sans-serif" font-size="14" lengthAdjust="spacing" textLength="84.5537" x="465.5498" y="107.292">AuthService</text></g><g class="participant participant-tail" data-entity-uid="part3" data-qualified-name="Service" data-source-line="5" id="part3-tail"><rect fill="#E2E2F0" height="30.2969" rx="2.5" ry="2.5" style="stroke:#181818;stroke-width:0.5;" width="98.5537" x="458.5498" y="529.9922"/><text fill="#000000" font-family="sans-serif" font-size="14" lengthAdjust="spacing" textLength="84.5537" x="465.5498" y="549.9873">AuthService</text></g><g class="participant participant-head" data-entity-uid="part4" data-qualified-name="Repo" data-source-line="6" id="part4-head"><rect fill="#E2E2F0" height="30.2969" rx="2.5" ry="2.5" style="stroke:#181818;stroke-width:0.5;" width="120.9824" x="669.6069" y="87.2969"/><text fill="#000000" font-family="sans-serif" font-size="14" lengthAdjust="spacing" textLength="106.9824" x="676.6069" y="107.292">UserRepository</text></g><g class="participant participant-tail" data-entity-uid="part4" data-qualified-name="Repo" data-source-line="6" id="part4-tail"><rect fill="#E2E2F0" height="30.2969" rx="2.5" ry="2.5" style="stroke:#181818;stroke-width:0.5;" width="120.9824" x="669.6069" y="529.9922"/><text fill="#000000" font-family="sans-serif" font-size="14" lengthAdjust="spacing" textLength="106.9824" x="676.6069" y="549.9873">UserRepository</text></g><g class="participant participant-head" data-entity-uid="part5" data-qualified-name="DB" data-source-line="7" id="part5-head"><text fill="#000000" font-family="sans-serif" font-size="14" lengthAdjust="spacing" textLength="66.8008" x="949.8169" y="115.292">Database</text><path d="M968.2173,66.2969 C968.2173,56.2969 986.2173,56.2969 986.2173,56.2969 C986.2173,56.2969 1004.2173,56.2969 1004.2173,66.2969 L1004.2173,92.2969 C1004.2173,102.2969 986.2173,102.2969 986.2173,102.2969 C986.2173,102.2969 968.2173,102.2969 968.2173,92.2969 L968.2173,66.2969" fill="#E2E2F0" style="stroke:#181818;stroke-width:0.5;"/><path d="M968.2173,66.2969 C968.2173,76.2969 986.2173,76.2969 986.2173,76.2969 C986.2173,76.2969 1004.2173,76.2969 1004.2173,66.2969" fill="none" style="stroke:#181818;stroke-width:0.5;"/></g><g class="participant participant-tail" data-entity-uid="part5" data-qualified-name="DB" data-source-line="7" id="part5-tail"><text fill="#000000" font-family="sans-serif" font-size="14" lengthAdjust="spacing" textLength="66.8008" x="949.8169" y="542.9873">Database</text><path d="M968.2173,556.2891 C968.2173,546.2891 986.2173,546.2891 986.2173,546.2891 C986.2173,546.2891 1004.2173,546.2891 1004.2173,556.2891 L1004.2173,582.2891 C1004.2173,592.2891 986.2173,592.2891 986.2173,592.2891 C986.2173,592.2891 968.2173,592.2891 968.2173,582.2891 L968.2173,556.2891" fill="#E2E2F0" style="stroke:#181818;stroke-width:0.5;"/><path d="M968.2173,556.2891 C968.2173,566.2891 986.2173,566.2891 986.2173,566.2891 C986.2173,566.2891 1004.2173,566.2891 1004.2173,556.2891" fill="none" style="stroke:#181818;stroke-width:0.5;"/></g><g><title>AuthController</title><rect fill="#FFFFFF" height="371.2656" style="stroke:#181818;stroke-width:1;" width="10" x="272.6143" y="149.7266"/></g><g><title>AuthService</title><rect fill="#FFFFFF" height="342.1328" style="stroke:#181818;stroke-width:1;" width="10" x="502.8267" y="178.8594"/></g><g><title>UserRepository</title><rect fill="#FFFFFF" height="58.2656" style="stroke:#181818;stroke-width:1;" width="10" x="725.0981" y="207.9922"/></g><g class="message" data-entity-1="part1" data-entity-2="part2" data-source-line="9" id="msg1"><polygon fill="#181818" points="260.6143,145.7266,270.6143,149.7266,260.6143,153.7266,264.6143,149.7266" style="stroke:#181818;stroke-width:1;"/><line style="stroke:#181818;stroke-width:1;" x1="57.002" x2="266.6143" y1="149.7266" y2="149.7266"/><text fill="#000000" font-family="sans-serif" font-size="13" lengthAdjust="spacing" textLength="196.6123" x="64.002" y="144.6606">POST /auth/login (Credentials)</text></g><g class="message" data-entity-1="part2" data-entity-2="part3" data-source-line="12" id="msg2"><polygon fill="#181818" points="490.8267,174.8594,500.8267,178.8594,490.8267,182.8594,494.8267,178.8594" style="stroke:#181818;stroke-width:1;"/><line style="stroke:#181818;stroke-width:1;" x1="282.6143" x2="496.8267" y1="178.8594" y2="178.8594"/><text fill="#000000" font-family="sans-serif" font-size="13" lengthAdjust="spacing" textLength="198.9038" x="289.6143" y="173.7935">authenticate(email, password)</text></g><g class="message" data-entity-1="part3" data-entity-2="part4" data-source-line="15" id="msg3"><polygon fill="#181818" points="713.0981,203.9922,723.0981,207.9922,713.0981,211.9922,717.0981,207.9922" style="stroke:#181818;stroke-width:1;"/><line style="stroke:#181818;stroke-width:1;" x1="512.8267" x2="719.0981" y1="207.9922" y2="207.9922"/><text fill="#000000" font-family="sans-serif" font-size="13" lengthAdjust="spacing" textLength="123.354" x="519.8267" y="202.9263">findByEmail(email)</text></g><g class="message" data-entity-1="part4" data-entity-2="part5" data-source-line="17" id="msg4"><polygon fill="#181818" points="974.2173,233.125,984.2173,237.125,974.2173,241.125,978.2173,237.125" style="stroke:#181818;stroke-width:1;"/><line style="stroke:#181818;stroke-width:1;" x1="735.0981" x2="980.2173" y1="237.125" y2="237.125"/><text fill="#000000" font-family="sans-serif" font-size="13" lengthAdjust="spacing" textLength="140.9243" x="742.0981" y="232.0591">SELECT * FROM users</text></g><g class="message" data-entity-1="part5" data-entity-2="part4" data-source-line="18" id="msg5"><polygon fill="#181818" points="741.0981,262.2578,731.0981,266.2578,741.0981,270.2578,737.0981,266.2578" style="stroke:#181818;stroke-width:1;"/><line style="stroke:#181818;stroke-width:1;stroke-dasharray:2,2;" x1="735.0981" x2="985.2173" y1="266.2578" y2="266.2578"/><text fill="#000000" font-family="sans-serif" font-size="13" lengthAdjust="spacing" textLength="227.1191" x="747.0981" y="261.1919">UserEntity (with hashed password)</text></g><g class="message" data-entity-1="part3" data-entity-2="part3" data-source-line="21" id="msg6"><line style="stroke:#181818;stroke-width:1;" x1="512.8267" x2="554.8267" y1="295.3906" y2="295.3906"/><line style="stroke:#181818;stroke-width:1;" x1="554.8267" x2="554.8267" y1="295.3906" y2="308.3906"/><line style="stroke:#181818;stroke-width:1;" x1="513.8267" x2="554.8267" y1="308.3906" y2="308.3906"/><polygon fill="#181818" points="523.8267,304.3906,513.8267,308.3906,523.8267,312.3906,519.8267,308.3906" style="stroke:#181818;stroke-width:1;"/><text fill="#000000" font-family="sans-serif" font-size="13" lengthAdjust="spacing" textLength="188.2715" x="519.8267" y="290.3247">verifyPassword(raw, hashed)</text></g><path d="M10,323.3906 L74.4429,323.3906 L74.4429,330.5234 L64.4429,340.5234 L10,340.5234 L10,323.3906" fill="#EEEEEE" style="stroke:#000000;stroke-width:1.5;"/><rect fill="none" height="190.6016" style="stroke:#000000;stroke-width:1.5;" width="693.5078" x="10" y="323.3906"/><text fill="#000000" font-family="sans-serif" font-size="13" font-weight="700" lengthAdjust="spacing" textLength="19.4429" x="25" y="336.4575">alt</text><text fill="#000000" font-family="sans-serif" font-size="11" font-weight="700" lengthAdjust="spacing" textLength="116.1284" x="89.4429" y="335.6011">[Valid Credentials]</text><g class="message" data-entity-1="part3" data-entity-2="part3" data-source-line="24" id="msg7"><line style="stroke:#181818;stroke-width:1;" x1="512.8267" x2="554.8267" y1="361.6563" y2="361.6563"/><line style="stroke:#181818;stroke-width:1;" x1="554.8267" x2="554.8267" y1="361.6563" y2="374.6563"/><line style="stroke:#181818;stroke-width:1;" x1="513.8267" x2="554.8267" y1="374.6563" y2="374.6563"/><polygon fill="#181818" points="523.8267,370.6563,513.8267,374.6563,523.8267,378.6563,519.8267,374.6563" style="stroke:#181818;stroke-width:1;"/><text fill="#000000" font-family="sans-serif" font-size="13" lengthAdjust="spacing" textLength="161.6812" x="519.8267" y="356.5903">generateJWTToken(user)</text></g><g class="message" data-entity-1="part3" data-entity-2="part2" data-source-line="25" id="msg8"><polygon fill="#181818" points="293.6143,399.7891,283.6143,403.7891,293.6143,407.7891,289.6143,403.7891" style="stroke:#181818;stroke-width:1;"/><line style="stroke:#181818;stroke-width:1;stroke-dasharray:2,2;" x1="287.6143" x2="501.8267" y1="403.7891" y2="403.7891"/><text fill="#000000" font-family="sans-serif" font-size="13" lengthAdjust="spacing" textLength="196.2124" x="299.6143" y="398.7231">AuthResponse (Token + User)</text></g><g class="message" data-entity-1="part2" data-entity-2="part1" data-source-line="26" id="msg9"><polygon fill="#181818" points="68.002,428.9219,58.002,432.9219,68.002,436.9219,64.002,432.9219" style="stroke:#181818;stroke-width:1;"/><line style="stroke:#181818;stroke-width:1;stroke-dasharray:2,2;" x1="62.002" x2="271.6143" y1="432.9219" y2="432.9219"/><text fill="#000000" font-family="sans-serif" font-size="13" lengthAdjust="spacing" textLength="114.3086" x="74.002" y="427.856">200 OK (Success)</text></g><line style="stroke:#000000;stroke-width:1;stroke-dasharray:2,2;" x1="10" x2="703.5078" y1="441.9219" y2="441.9219"/><text fill="#000000" font-family="sans-serif" font-size="11" font-weight="700" lengthAdjust="spacing" textLength="51.9868" x="15" y="452.1323">[Invalid]</text><g class="message" data-entity-1="part3" data-entity-2="part2" data-source-line="28" id="msg10"><polygon fill="#181818" points="293.6143,472.8594,283.6143,476.8594,293.6143,480.8594,289.6143,476.8594" style="stroke:#181818;stroke-width:1;"/><line style="stroke:#181818;stroke-width:1;stroke-dasharray:2,2;" x1="287.6143" x2="501.8267" y1="476.8594" y2="476.8594"/><text fill="#000000" font-family="sans-serif" font-size="13" lengthAdjust="spacing" textLength="62.6704" x="299.6143" y="471.7935">AuthError</text></g><g class="message" data-entity-1="part2" data-entity-2="part1" data-source-line="29" id="msg11"><polygon fill="#181818" points="68.002,501.9922,58.002,505.9922,68.002,509.9922,64.002,505.9922" style="stroke:#181818;stroke-width:1;"/><line style="stroke:#181818;stroke-width:1;stroke-dasharray:2,2;" x1="62.002" x2="271.6143" y1="505.9922" y2="505.9922"/><text fill="#000000" font-family="sans-serif" font-size="13" lengthAdjust="spacing" textLength="116.2256" x="74.002" y="500.9263">401 Unauthorized</text></g><?plantuml-src VL5BJy904BxlhvXmAYeHZQSUJAJK11_1KD3psXrXuxBRp6uX-ElTAOMK-EXXiss_rymNT3082uy40oZqqiB42Y7Bu0YosWUtHXALfA1BNKaRe7TNXrNcR21d358Ff8SiaFa9Af0skiG6qTvFGUmwmyfv7Trs3OvVXP91lakFq1ktj-RVU2J48H8CRXlN55wcnHmkPVIxD6wfBIGPeK8Rj3I-pvFeZGoupoZuP6wR9mKcChYCc0JNKfiBgAJtMqUgmpxa5-s5DJXh2X_Qgj4kP-QUts4rq_31yF4eXI9_ohCvdC7zRFeCTPpVY_481aSrNaaUuuGT95iTLh2IVeMg4qdXgNmtqN6g3PB-sBsqf8Jazg9LwiToJO1NQRI2pgO4nEStgILQfEZsy3QVkq-q2QVkdyAFPN3jC_ILix6zfC73UJFKdh5VFyFR7bEu7WvX-WX9KPSb-jWOciYTs0qd_CSc9tBqb-ZDy0eMbhjrfBzG2RHAT5TtwBFpYMM-0G00?></g></svg>